<?xml version="1.0" encoding="UTF-8" standalone="no"?>
<!-- Created with Inkscape (http://www.inkscape.org/) -->

<svg
   width="53.490623mm"
   height="53.490623mm"
   viewBox="0 0 53.490623 53.490623"
   version="1.1"
   id="svg1"
   xml:space="preserve"
   inkscape:version="1.3 (0e150ed6c4, 2023-07-21)"
   sodipodi:docname="multiport-agency-logo.svg"
   xmlns:inkscape="http://www.inkscape.org/namespaces/inkscape"
   xmlns:sodipodi="http://sodipodi.sourceforge.net/DTD/sodipodi-0.dtd"
   xmlns="http://www.w3.org/2000/svg"
   xmlns:svg="http://www.w3.org/2000/svg"><sodipodi:namedview
     id="namedview1"
     pagecolor="#ffffff"
     bordercolor="#000000"
     borderopacity="0.25"
     inkscape:showpageshadow="2"
     inkscape:pageopacity="0.0"
     inkscape:pagecheckerboard="0"
     inkscape:deskcolor="#d1d1d1"
     inkscape:document-units="mm"
     inkscape:zoom="2"
     inkscape:cx="125.5"
     inkscape:cy="52.75"
     inkscape:window-width="1600"
     inkscape:window-height="837"
     inkscape:window-x="1912"
     inkscape:window-y="174"
     inkscape:window-maximized="1"
     inkscape:current-layer="layer1" /><defs
     id="defs1" /><g
     inkscape:label="Layer 1"
     inkscape:groupmode="layer"
     id="layer1"
     transform="translate(-57.422436,-74.883442)"><circle
       style="fill:#ffffff;fill-opacity:1;stroke:#02284d;stroke-width:1.5;stroke-dasharray:none;stroke-opacity:1;paint-order:stroke fill markers"
       id="path11"
       cx="26.745312"
       cy="26.745312"
       inkscape:label="circle"
       r="25.995312"
       transform="translate(57.422436,74.883442)" /><g
       id="g10"
       inkscape:label="logo-main"
       transform="translate(-1.6666666e-7,-2.4065672)"><path
         style="fill:#02284d;fill-opacity:1;stroke-width:10;paint-order:stroke fill markers"
         d="m 84.282546,121.71458 -12.408785,-8.91927 c -1.619335,-1.59959 -2.168487,-3.00547 -2.38909,-4.79265 l -0.07239,-17.273842 14.754438,-4.372758 14.73995,4.416197 0.0145,16.738103 c 0.0676,1.77053 -1.55554,4.30545 -2.9393,5.58902 z"
         id="path10"
         sodipodi:nodetypes="ccccccccc"
         inkscape:label="blue-shield" /><path
         style="fill:#ffffff;fill-opacity:1;stroke-width:10;paint-order:stroke fill markers"
         d="m 77.152478,111.1829 -2.661994,-1.84292 c -0.374833,-0.47843 -0.797046,-0.87457 -0.819074,-1.96577 l -0.04819,-14.093053 10.382799,6.268404 10.597721,-6.369547 -0.005,13.866566 c -0.0684,1.63951 -0.60718,2.13114 -1.1467,2.62103 l -9.214584,6.75737 -1.779304,-1.26954 3.089822,-10.27941 -8.436467,-5.201121 z"
         id="path9"
         inkscape:label="letter-m"
         sodipodi:nodetypes="ccccccccccccc" /><path
         style="fill:#d61d22;fill-opacity:1;stroke-width:10;paint-order:stroke fill markers"
         d="m 78.693525,112.37541 3.764627,2.78003 7.731968,-10.33823 2.2298,1.67959 -0.0579,-8.166334 -6.602573,3.156484 1.737523,1.21627 z"
         id="path8"
         sodipodi:nodetypes="cccccccc"
         inkscape:label="red-arrow" /></g></g></svg>
